<?xml version="1.0" encoding="utf-8"?>
<svg version="1.1" id="Layer_1" xmlns="http://www.w3.org/2000/svg" xmlns:xlink="http://www.w3.org/1999/xlink" x="0px" y="0px"
	 viewBox="0 0 390.9 175.2" style="enable-background:new 0 0 390.9 175.2;" xml:space="preserve">
<style type="text/css">
	.st0{fill-rule:evenodd;clip-rule:evenodd;fill:none;stroke:#FFFFFF;stroke-width:5;stroke-miterlimit:10;}
	.st1{fill:#FFFFFF;}
</style>
<g>
	<path class="st0" d="M249.4,10.1c-0.8-2.1-2.7-3.4-4.9-3.4h-15.3c0-2.6-0.2-4.2-0.2-4.2h-35.7h-35.7c0,0-0.1,1.5-0.2,4.2h-15.3
		c-2.1,0-4,1.3-4.9,3.4c-2.1,5.4,3.1,26.6,12.6,35.2c3.5,3.1,7.7,5.1,12.4,5.8c1.3,0.5,2.3,1.4,2.2,2.2c-0.2,1.3-2.6,1.5-1.6,4.1
		c1.1,2.8,7.4,1.4,8.3-3.1c3.3,3.7,7.4,6.7,12.4,8.8c6.5,2.6,1.9,30.4,1.9,33.2c0,0-10.4,0-12.2,2.8c-1.1,1.7-0.9,3.7-0.9,3.7
		s-6.7,2.1-6.7,4.9c0,2.8,0,3.4,0,3.4h27.6h27.6c0,0,0-0.7,0-3.4c0-2.8-6.7-4.9-6.7-4.9s0.2-2-0.9-3.7c-1.8-2.8-12.2-2.8-12.2-2.8
		c0-2.9-4.6-30.6,1.9-33.2c5-2,9.1-5.1,12.4-8.8c1,4.5,7.2,6,8.3,3.1c1-2.6-1.4-2.8-1.6-4.1c-0.1-0.8,0.9-1.8,2.2-2.2
		c4.7-0.7,8.9-2.7,12.4-5.8C246.3,36.7,251.5,15.5,249.4,10.1z M142.3,11.4c1.6,0,10.7,0,15.4,0c0.3,9.1,1.9,23.5,8.3,35.1
		c-5-0.1-9.2-1.7-12.7-4.8C144.3,33.6,140.1,11.4,142.3,11.4z M233.6,41.7c-3.5,3.1-7.7,4.8-12.7,4.8c6.4-11.7,8-26.1,8.3-35.1
		c4.7,0,13.7,0,15.4,0C246.8,11.4,242.6,33.6,233.6,41.7z"/>
	<g>
		<path class="st1" d="M20.9,164.6c0,5.4,1.9,6,8.5,6c9.6,0,10.1-5,13.3-12.9H46l-0.9,16.7H0v-3.2c5.6-0.3,6.4-0.7,6.4-4.9V125
			c0-4.1-0.8-4.6-6.4-4.8V117h28.4v3.2c-6.8,0.3-7.5,0.7-7.5,4.8V164.6z"/>
		<path class="st1" d="M62.3,160.4c0,5.9,2,10.3,7.4,10.3c3.3,0,5.8-1.7,7.4-4.9l2.1,1.2c-2,5-5.7,8.2-12.4,8.2
			c-10.7,0.1-13.9-7-13.9-14.6c0-7.8,3.7-14.5,14-14.5c11,0,12.7,7,12.7,11.8c0,1.8-1,2.5-3.1,2.5H62.3z M68.9,157.6
			c1.3,0,1.7-0.3,1.7-1.9c0-2.7-0.7-6.9-3.8-6.9c-3.4,0-4.6,4.4-4.6,8.8H68.9z"/>
		<path class="st1" d="M111.4,167c0,2.8,0.5,3.7,1.5,4.1c0.6,0.3,1.9,0.4,2.6,0.4l0.1,2c-1.7,0.8-4.6,1.7-8,1.7
			c-2.8,0-4-1.3-4.7-3.2c-2,1.3-4.4,3.2-8,3.2c-5.8,0-8.6-4-8.6-8.3c0-3.2,1.6-5.5,6.1-7.1c3.5-1.1,8.2-2.6,10.2-4V153
			c0-3.2-1.4-4.2-3.1-4.2c-1.5,0-3.2,0.5-4.7,5.7c-0.5,1.4-1.2,2.3-2.4,2.3c-1.5,0-5.3-1-5.3-3.7c0-3.7,4.5-7.1,13.1-7.1
			c10.2,0,11.3,4.7,11.3,8.2V167z M102.7,158.7c-1.4,0.7-3.2,1.3-4.9,2.3c-1.5,0.9-2.3,2.3-2.3,5c0,3,2,4.6,4,4.6
			c1.4,0,3.2-0.8,3.2-3.6V158.7z"/>
		<path class="st1" d="M139.2,136.7l-1.9-0.4v-2l11.8-1.5l0.4,0.3v36.5c0,2.3,0.5,2.5,3.6,2.7v2.2h-12.5v-2.7
			c-3.1,2.4-6.4,3.4-8.3,3.4c-7.1,0-11-5.5-11-14c0-5.1,1.6-9,4.3-11.5c2.6-2.4,6.5-3.6,10.4-3.6c1.8,0,3.4,0.2,4.6,0.7v-7.1
			C140.5,137.5,140,136.9,139.2,136.7z M140.5,154.1c0-1.1,0-2.5-0.5-3.3c-0.5-1-1.6-2-3.7-2c-2.9,0-5.8,2.8-5.8,11.2
			c0,7.3,2.3,10.7,5.8,10.7c1.7,0,2.8-0.7,3.3-1.5c0.7-0.9,0.8-2,0.8-3.1V154.1z"/>
		<path class="st1" d="M168.4,160.4c0,5.9,2,10.3,7.4,10.3c3.3,0,5.8-1.7,7.4-4.9l2.1,1.2c-2,5-5.7,8.2-12.4,8.2
			c-10.7,0.1-13.9-7-13.9-14.6c0-7.8,3.7-14.5,14-14.5c11,0,12.7,7,12.7,11.8c0,1.8-1,2.5-3.1,2.5H168.4z M175,157.6
			c1.3,0,1.7-0.3,1.7-1.9c0-2.7-0.7-6.9-3.8-6.9c-3.4,0-4.6,4.4-4.6,8.8H175z"/>
		<path class="st1" d="M204.2,169.6c0,2.3,0.5,2.5,4.7,2.7v2.2h-17.3v-2.2c3.1-0.2,3.6-0.4,3.6-2.7v-16.5c0-2.3-0.5-2.8-1.3-2.9
			l-1.9-0.3v-2.1l11.3-1.7l0.7,5c3.2-3.4,5-5,7.5-5c2.4,0,4.1,1.6,4.1,4.1c0,2.3-1.4,5.1-4.2,5.1c-1.1,0-1.8-0.7-2.5-1.2
			c-1.1-0.8-1.9-1.4-2.8-1.4c-1.3,0-1.9,1.5-1.9,4.3V169.6z"/>
		<path class="st1" d="M221.6,136.7l-2-0.4v-2l11.8-1.5l0.4,0.2v17c2.8-2.2,5.4-3.9,8.9-3.9c5,0,10.5,3.5,10.5,13.6
			c0,12.9-6.8,15.5-14.9,15.5c-3.6,0-6.4-0.8-8.4-1.9l-3.2,1.9l-1.9-1.1v-34.4C222.8,137.5,222.4,136.9,221.6,136.7z M231.8,165.9
			c0,1,0.1,2.3,0.2,3.1c0.3,2,1.7,3.5,4.4,3.5c4,0,5.3-4.4,5.3-11.3c0-9.1-2.6-10.6-5.4-10.6c-2.5,0-3.6,1.3-4.3,3.1
			c-0.3,0.8-0.3,2-0.3,3.2V165.9z"/>
		<path class="st1" d="M288.4,160.7c0,9-4.3,14.5-14.7,14.5c-10.4,0-14.8-5.5-14.8-14.5c0-9,4.3-14.6,14.8-14.6
			C284.1,146.1,288.4,151.7,288.4,160.7z M273.7,172.6c3.8,0,5.3-4.4,5.3-11.9c0-7.6-1.5-11.9-5.3-11.9c-3.8,0-5.3,4.3-5.3,11.9
			C268.4,168.2,269.9,172.6,273.7,172.6z"/>
		<path class="st1" d="M320.9,167c0,2.8,0.5,3.7,1.5,4.1c0.6,0.3,1.9,0.4,2.6,0.4l0.1,2c-1.7,0.8-4.6,1.7-8,1.7
			c-2.8,0-4-1.3-4.7-3.2c-2,1.3-4.4,3.2-8,3.2c-5.8,0-8.6-4-8.6-8.3c0-3.2,1.6-5.5,6.1-7.1c3.5-1.1,8.2-2.6,10.2-4V153
			c0-3.2-1.4-4.2-3.1-4.2c-1.5,0-3.2,0.5-4.7,5.7c-0.5,1.4-1.2,2.3-2.4,2.3c-1.5,0-5.3-1-5.3-3.7c0-3.7,4.5-7.1,13.1-7.1
			c10.2,0,11.3,4.7,11.3,8.2V167z M312.2,158.7c-1.4,0.7-3.2,1.3-4.9,2.3c-1.5,0.9-2.3,2.3-2.3,5c0,3,2,4.6,4,4.6
			c1.4,0,3.2-0.8,3.2-3.6V158.7z"/>
		<path class="st1" d="M342.2,169.6c0,2.3,0.5,2.5,4.7,2.7v2.2h-17.3v-2.2c3.1-0.2,3.6-0.4,3.6-2.7v-16.5c0-2.3-0.5-2.8-1.3-2.9
			L330,150v-2.1l11.3-1.7l0.7,5c3.2-3.4,5-5,7.5-5c2.4,0,4.1,1.6,4.1,4.1c0,2.3-1.4,5.1-4.2,5.1c-1.1,0-1.8-0.7-2.5-1.2
			c-1.1-0.8-1.9-1.4-2.8-1.4c-1.3,0-1.9,1.5-1.9,4.3V169.6z"/>
		<path class="st1" d="M377,136.7l-1.9-0.4v-2l11.8-1.5l0.4,0.3v36.5c0,2.3,0.5,2.5,3.6,2.7v2.2h-12.5v-2.7
			c-3.1,2.4-6.4,3.4-8.3,3.4c-7.1,0-11-5.5-11-14c0-5.1,1.6-9,4.3-11.5c2.6-2.4,6.5-3.6,10.4-3.6c1.8,0,3.4,0.2,4.6,0.7v-7.1
			C378.4,137.5,377.9,136.9,377,136.7z M378.4,154.1c0-1.1,0-2.5-0.5-3.3c-0.5-1-1.6-2-3.7-2c-2.9,0-5.8,2.8-5.8,11.2
			c0,7.3,2.3,10.7,5.8,10.7c1.7,0,2.8-0.7,3.3-1.5c0.7-0.9,0.8-2,0.8-3.1V154.1z"/>
	</g>
</g>
</svg>
